<?xml version="1.0" standalone="no"?>
<!DOCTYPE svg PUBLIC "-//W3C//DTD SVG 20010904//EN"
 "http://www.w3.org/TR/2001/REC-SVG-20010904/DTD/svg10.dtd">
<svg version="1.0" xmlns="http://www.w3.org/2000/svg"
 width="512.000000pt" height="512.000000pt" viewBox="0 0 512.000000 512.000000"
 preserveAspectRatio="xMidYMid meet">

<g transform="translate(0.000000,512.000000) scale(0.100000,-0.100000)"
fill="#000000" stroke="none">
<path d="M1090 5108 c-47 -15 -724 -684 -751 -743 -25 -54 -25 -144 0 -193 11
-20 85 -102 164 -181 l145 -144 -44 -59 c-80 -109 -74 14 -74 -1632 1 -1368 2
-1474 18 -1521 16 -47 253 -409 328 -501 42 -52 113 -98 184 -118 50 -15 214
-16 1625 -14 l1570 3 58 23 c32 14 79 44 107 70 59 57 325 445 357 522 l23 55
0 1332 0 1332 -22 21 c-40 37 -98 22 -117 -31 -6 -18 -11 -98 -11 -180 l0
-149 -1871 0 c-1299 0 -1876 -3 -1890 -11 -48 -25 -44 -105 7 -128 18 -8 525
-11 1889 -11 l1865 0 0 -695 0 -695 -1196 -2 -1196 -3 -19 -24 c-26 -32 -24
-73 4 -99 l23 -22 1192 0 1192 0 0 -305 c0 -286 -1 -308 -20 -345 -23 -46
-273 -414 -302 -447 -11 -12 -42 -31 -69 -42 l-48 -21 -1558 2 -1558 3 -46 27
c-39 23 -69 60 -185 230 -203 296 -184 235 -184 595 l0 303 674 0 675 0 20 26
c26 33 27 65 2 95 l-19 24 -676 3 -676 2 0 1078 c0 1032 1 1079 19 1117 13 27
189 210 537 557 434 433 526 520 563 533 38 13 188 15 1205 15 786 0 1182 -3
1222 -11 191 -34 359 -192 410 -384 10 -37 14 -141 14 -402 0 -219 4 -362 10
-379 21 -55 68 -69 114 -33 l26 20 0 378 c0 343 -2 385 -20 455 -55 217 -222
394 -445 473 l-80 28 -1235 0 -1235 0 -58 -27 c-32 -15 -74 -41 -95 -58 l-36
-30 -146 144 c-80 79 -160 151 -179 161 -42 21 -134 28 -181 13z m249 -283
l146 -145 -85 -85 -85 -85 -160 160 -160 161 71 69 c54 53 78 70 100 70 22 0
55 -28 173 -145z m-219 -510 l-85 -85 -160 160 -160 160 85 85 85 85 160 -160
160 -160 -85 -85z m-280 -280 l-85 -85 -142 142 c-177 176 -176 175 -76 279
l67 70 160 -160 161 -161 -85 -85z"/>
<path d="M2287 4489 c-80 -19 -159 -74 -188 -130 -17 -35 -19 -61 -19 -296 0
-229 3 -263 19 -299 24 -53 91 -109 146 -123 29 -7 211 -11 540 -11 l496 0 24
25 c32 31 33 74 2 103 -23 22 -24 22 -526 22 l-502 0 -24 25 -25 24 0 229 c0
255 -3 245 73 277 65 27 136 20 214 -21 89 -48 134 -48 205 -2 48 30 59 33
133 33 74 0 85 -3 132 -33 71 -46 118 -45 207 2 55 29 78 36 126 36 48 0 71
-7 126 -36 88 -47 136 -48 204 -4 97 62 217 52 296 -25 l46 -45 98 0 c83 0
101 -3 124 -21 25 -20 26 -23 26 -140 0 -137 -11 -173 -68 -232 -59 -60 -97
-67 -389 -67 l-254 0 -24 -25 c-14 -13 -25 -31 -25 -39 0 -28 22 -64 47 -75
33 -15 494 -15 565 0 117 25 212 99 265 207 27 54 28 65 31 217 l3 160 -31 52
c-45 78 -99 106 -213 111 -83 4 -94 7 -133 37 -69 53 -126 70 -234 70 -87 0
-101 -3 -161 -32 l-66 -33 -64 33 c-60 30 -70 32 -169 32 -99 0 -109 -2 -169
-32 l-64 -33 -66 33 c-61 30 -73 32 -166 32 -94 0 -105 -2 -168 -33 l-67 -33
-33 19 c-74 46 -204 64 -300 41z"/>
<path d="M1546 2509 c-23 -18 -26 -27 -26 -85 0 -58 -2 -64 -21 -64 -32 0 -55
-17 -68 -49 -21 -49 15 -101 70 -101 18 0 19 -10 19 -220 0 -207 1 -221 20
-240 30 -30 83 -27 109 6 20 25 21 39 21 240 0 202 1 214 19 214 34 0 71 38
71 75 0 37 -37 75 -71 75 -16 0 -19 8 -19 50 0 104 -58 151 -124 99z"/>
<path d="M1885 2505 l-25 -24 0 -354 0 -354 23 -21 c33 -31 80 -29 106 4 19
24 21 40 21 159 0 73 3 146 6 164 12 60 79 100 122 72 23 -14 32 -80 32 -233
0 -134 2 -150 20 -168 30 -30 83 -27 110 8 21 26 22 34 18 202 -3 155 -7 181
-26 225 -13 27 -30 58 -40 69 -42 47 -153 70 -216 46 l-26 -10 0 96 c0 87 -2
97 -25 119 -13 14 -36 25 -50 25 -14 0 -37 -11 -50 -25z"/>
<path d="M4326 2509 l-26 -20 0 -360 c0 -346 1 -360 20 -379 27 -27 81 -26
106 1 18 20 19 43 22 358 2 185 0 346 -3 359 -8 32 -41 62 -69 62 -13 0 -35
-9 -50 -21z"/>
<path d="M913 2500 c-12 -5 -26 -18 -32 -29 -7 -13 -11 -138 -11 -360 0 -328
1 -342 20 -361 18 -18 33 -20 185 -20 152 0 167 2 185 20 27 27 26 81 -1 106
-17 16 -40 20 -130 22 l-109 4 0 79 0 79 74 0 c64 0 79 3 100 23 36 32 39 74
6 107 -17 17 -33 20 -100 20 l-80 0 0 85 0 85 110 0 c126 0 150 12 150 73 0
64 -21 72 -194 74 -83 1 -161 -2 -173 -7z"/>
<path d="M2832 2295 c-25 -21 -34 -24 -57 -15 -45 17 -145 12 -195 -11 -128
-58 -193 -209 -146 -341 37 -103 142 -173 256 -172 36 0 75 6 88 13 21 11 26
9 47 -13 33 -36 86 -36 114 0 20 25 21 39 21 271 l0 244 -25 24 c-31 32 -66
32 -103 0z m-83 -170 c87 -44 71 -184 -24 -215 -49 -16 -89 -4 -125 36 -24 28
-30 44 -30 80 0 39 5 51 34 80 28 28 42 34 75 34 23 0 55 -7 70 -15z"/>
<path d="M3110 2313 c-8 -3 -23 -12 -32 -21 -16 -14 -18 -40 -18 -269 0 -240
1 -254 20 -273 27 -27 81 -26 106 1 17 18 20 42 24 184 4 146 7 167 26 192 15
20 31 29 56 31 58 5 62 -8 68 -210 5 -174 6 -180 29 -199 30 -25 72 -24 99 1
21 20 22 29 22 195 0 194 -14 256 -68 308 -54 52 -147 72 -220 46 -25 -9 -36
-8 -54 5 -23 17 -33 18 -58 9z"/>
<path d="M3785 2286 c-61 -29 -117 -84 -147 -145 -18 -35 -23 -63 -23 -121 0
-88 23 -144 83 -205 113 -115 304 -115 415 0 59 61 82 118 82 205 0 87 -23
144 -82 205 -82 85 -222 111 -328 61z m215 -161 c41 -39 57 -93 42 -143 -18
-60 -62 -95 -124 -99 -152 -11 -214 170 -88 255 50 34 128 27 170 -13z"/>
</g>
</svg>
